<?xml version="1.0" encoding="utf-8"?>
<!-- Generator: Adobe Illustrator 24.0.2, SVG Export Plug-In . SVG Version: 6.00 Build 0)  -->
<svg version="1.1" id="Capa_1" xmlns="http://www.w3.org/2000/svg" xmlns:xlink="http://www.w3.org/1999/xlink" x="0px" y="0px"
	 viewBox="0 0 612 792" style="enable-background:new 0 0 612 792;" xml:space="preserve">
<style type="text/css">
	.st0{fill:#C71532;}
</style>
<g>
	<path class="st0" d="M147.07,356.93c-1.76-0.31-3.57-0.46-5.39-0.46h-19.34c-1.59,0.04-3.1,0.19-4.6,0.46
		c-14.97,2.57-25.83,15.47-25.83,30.68v16.46c0,15.18,10.86,28.1,25.83,30.71c1.71,0.31,3.51,0.46,5.35,0.46l18.53-0.02l0.83-0.02
		c1.55-0.04,3.06-0.18,4.63-0.46c14.94-2.57,25.78-15.47,25.78-30.68v-16.46C172.85,372.4,162.01,359.5,147.07,356.93 M131.39,365.6
		v-0.86h10.29c1.95,0,3.89,0.24,5.75,0.73c3.92,0.98,7.53,3.05,10.45,5.97c2.23,2.22,3.95,4.84,5.11,7.75l1.23,3.09l-2.57-2.13
		c-4.2-3.5-9.24-5.84-14.57-6.77c-1.75-0.3-3.56-0.46-5.39-0.46h-10.39l0.12-0.95C131.42,371.66,131.4,367.89,131.39,365.6
		 M100.26,386.83c0.19-5.9,2.55-11.36,6.66-15.39c2.42-2.42,7.2-5.15,10.45-5.96c1.57-0.4,3.21-0.64,4.84-0.73l0.91-0.05l-0.06,6.29
		c0,4.81-1.45,9.36-3.99,12.51c-0.25,0.34-0.55,0.68-0.89,1.01c-1.37,1.41-3.62,3.11-6.53,3.11l-4.62,0.08h-5.91h-0.88
		L100.26,386.83z M133.4,426.93h-10.33c-1.89,0-3.81-0.23-5.7-0.69c-4-1.04-7.62-3.12-10.47-6.01c-2.28-2.29-4.01-4.9-5.13-7.75
		l-1.21-3.1l2.55,2.13c4.19,3.49,9.25,5.83,14.61,6.77c1.71,0.3,3.52,0.45,5.35,0.45h10.33V426.93z M135.35,409.92l-0.21,0.54
		h-12.07c-1.96,0-3.89-0.25-5.71-0.74c-3.98-0.99-7.6-3.07-10.46-6.01c-1.89-1.86-3.45-4.09-4.64-6.64l-0.56-1.21h9.95
		c1.93,0,3.83-0.32,5.65-0.97c5.33-1.98,9.76-6.75,12.14-13.1l0.2-0.55h12.03c1.88,0,3.81,0.23,5.74,0.69
		c3.95,1.03,7.57,3.11,10.45,6.01c1.9,1.85,3.5,4.16,4.62,6.65l0.54,1.2h-9.92c-1.86,0-3.75,0.34-5.6,1.01
		C142.2,398.79,137.76,403.57,135.35,409.92 M164.49,404.84c-0.19,5.84-2.55,11.31-6.62,15.39c-2.91,2.92-6.53,4.98-10.45,5.97
		c-1.63,0.42-3.29,0.65-4.9,0.69l-0.88,0.03l0.04-6.23c0-4.79,1.46-9.35,4-12.55c0.26-0.3,0.56-0.64,0.93-1.02
		c2-2,4.25-3.07,6.49-3.07l4.68-0.08h6.73L164.49,404.84z"/>
	<path class="st0" d="M204.5,357.3h10.98l19.05,48.53h-10.78l-4.17-11.12h-19.67l-4.25,11.12h-10.08L204.5,357.3z M209.86,367.03
		h-0.14l-7.02,20.03h14.18L209.86,367.03z"/>
	<path class="st0" d="M266.86,366.2c-3.06-1.32-6.47-2.08-9.87-2.08c-3.33,0-7.64,1.46-7.64,6.74c0,8.41,21.28,4.87,21.28,21.14
		c0,10.64-8.42,14.67-18.22,14.67c-5.28,0-7.65-0.7-12.44-1.88l0.9-8.76c3.34,1.81,7.16,2.99,10.98,2.99c3.69,0,8.63-1.87,8.63-6.25
		c0-9.25-21.28-5.42-21.28-21.49c0-10.84,8.41-14.81,16.97-14.81c4.17,0,8.06,0.55,11.61,1.74L266.86,366.2z"/>
	<path class="st0" d="M300.85,356.46c15.23,0,23.78,10.29,23.78,24.96c0,14.67-8.41,25.24-23.78,25.24
		c-15.57,0-23.78-10.36-23.78-25.24C277.08,366.54,285.42,356.46,300.85,356.46 M300.85,399.01c9.94,0,13.63-8.82,13.63-17.58
		c0-8.56-3.96-17.31-13.63-17.31c-9.66,0-13.63,8.76-13.63,17.31C287.23,390.19,290.92,399.01,300.85,399.01"/>
	<path class="st0" d="M368.85,405.13c-3.54,0.83-7.37,1.53-11.05,1.53c-15.72,0-26.63-7.85-26.63-24.26
		c0-16.62,10.14-25.94,26.63-25.94c3.2,0,7.44,0.63,10.98,2.02l-0.69,8.2c-3.68-2.09-7.02-2.58-10.5-2.58
		c-10.01,0-16.27,7.65-16.27,17.59c0,9.87,6.12,17.3,16.48,17.3c3.82,0,8.34-0.83,10.64-2.01L368.85,405.13z"/>
	<rect x="375.18" y="357.3" class="st0" width="9.73" height="48.53"/>
	<path class="st0" d="M409.24,357.3h10.99l19.05,48.53H428.5l-4.17-11.12h-19.68l-4.24,11.12h-10.08L409.24,357.3z M414.6,367.03
		h-0.14l-7.02,20.03h14.18L414.6,367.03z"/>
	<path class="st0" d="M444.7,357.3h10.5c10.43,0,22.88-0.35,22.88,13.14c0,5.7-3.83,10.42-10.02,11.26v0.14
		c2.64,0.21,4.17,2.85,5.15,5.01l7.79,18.98h-10.84l-5.84-15.16c-1.39-3.61-2.64-5-6.75-5h-3.13v20.17h-9.73V357.3z M454.43,378.02
		h3.2c4.8,0,10.29-0.7,10.29-6.74c0-5.85-5.42-6.33-10.29-6.33h-3.2V378.02z"/>
	<polygon class="st0" points="496.84,364.95 482.93,364.95 482.93,357.3 520.48,357.3 520.48,364.95 506.57,364.95 506.57,405.83 
		496.84,405.83 	"/>
	<path class="st0" d="M188.93,422.18h2.96l3.49,9.06h-2.64l-0.67-1.94h-3.41l-0.71,1.94h-2.45L188.93,422.18z M190.41,424.05h-0.02
		l-1.17,3.54h2.27L190.41,424.05z"/>
	<path class="st0" d="M198.04,429.01c0.63,0.34,1.5,0.6,2.5,0.6c0.76,0,1.49-0.16,1.49-0.88c0-1.69-4.28-0.63-4.28-3.92
		c0-2.18,2.13-2.78,3.95-2.78c0.87,0,1.73,0.13,2.33,0.33l-0.15,1.87c-0.63-0.28-1.33-0.42-2.02-0.42c-0.61,0-1.62,0.06-1.62,0.85
		c0,1.47,4.28,0.48,4.28,3.75c0,2.35-1.98,2.98-3.98,2.98c-0.85,0-1.9-0.13-2.7-0.39L198.04,429.01z"/>
	<polygon class="st0" points="207.57,422.18 213.96,422.18 213.96,423.89 209.98,423.89 209.98,425.76 213.73,425.76 213.73,427.47 
		209.98,427.47 209.98,429.52 214.1,429.52 214.1,431.24 207.57,431.24 	"/>
	<path class="st0" d="M225.62,430.97c-1.53,0.39-2.67,0.42-3.5,0.42c-2.42,0-5.21-1.22-5.21-4.65c0-3.42,2.4-4.73,5.72-4.73
		c0.6,0,1.85,0.07,2.74,0.4l-0.2,1.98c-0.75-0.44-1.63-0.59-2.21-0.59c-1.96,0-3.57,0.82-3.57,2.94c0,1.78,1.26,2.85,3.02,2.85
		c0.32,0,0.64-0.05,0.86-0.16v-1.79h-1.41v-1.72h3.75V430.97z"/>
	<path class="st0" d="M236.85,427.79c0,2.48-1.6,3.6-3.97,3.6c-2.36,0-3.97-1.12-3.97-3.6v-5.62h2.42v5.22
		c0,1.19,0.32,2.21,1.56,2.21c1.23,0,1.56-1.01,1.56-2.21v-5.22h2.41V427.79z"/>
	<path class="st0" d="M240.04,422.18h4.3c1.61,0,2.92,0.73,2.92,2.29c0,1.2-0.57,2.01-1.74,2.28v0.02c0.78,0.21,0.83,0.9,1.29,2
		l0.88,2.47h-2.51l-0.52-1.64c-0.49-1.56-0.81-1.94-1.7-1.94h-0.51v3.58h-2.41V422.18z M242.45,425.94h0.63
		c0.78,0,1.77-0.03,1.77-1.05c0-0.84-0.85-1-1.77-1h-0.63V425.94z"/>
	<path class="st0" d="M253.15,422.18h2.96l3.49,9.06h-2.65l-0.67-1.94h-3.41l-0.71,1.94h-2.45L253.15,422.18z M254.62,424.05h-0.02
		l-1.17,3.54h2.27L254.62,424.05z"/>
	<path class="st0" d="M262.23,422.18h3.3c3.16,0,5.36,0.99,5.36,4.49c0,3.39-2.27,4.57-5.36,4.57h-3.3V422.18z M264.65,429.45h0.93
		c1.8,0,2.82-0.93,2.82-2.74c0-1.8-1.05-2.73-2.82-2.73h-0.93V429.45z"/>
	<path class="st0" d="M278.22,422.02c2.99,0,4.55,1.78,4.55,4.69c0,2.88-1.59,4.69-4.55,4.69c-2.96,0-4.54-1.8-4.54-4.69
		C273.68,423.8,275.24,422.02,278.22,422.02 M278.22,429.6c1.47,0,2.06-1.4,2.06-2.9c0-1.57-0.58-2.9-2.06-2.9
		c-1.47,0-2.05,1.33-2.05,2.9C276.18,428.2,276.76,429.6,278.22,429.6"/>
	<path class="st0" d="M285.74,422.18h4.31c1.61,0,2.92,0.73,2.92,2.29c0,1.2-0.58,2.01-1.74,2.28v0.02c0.78,0.21,0.83,0.9,1.28,2
		l0.88,2.47h-2.52l-0.52-1.64c-0.49-1.56-0.8-1.94-1.69-1.94h-0.5v3.58h-2.42V422.18z M288.16,425.94h0.64
		c0.78,0,1.76-0.03,1.76-1.05c0-0.84-0.85-1-1.76-1h-0.64V425.94z"/>
	<path class="st0" d="M298.85,422.18h2.96l3.49,9.06h-2.65l-0.67-1.94h-3.4l-0.72,1.94h-2.45L298.85,422.18z M300.33,424.05h-0.03
		l-1.17,3.54h2.27L300.33,424.05z"/>
	<path class="st0" d="M313.59,422.18h3.3c3.16,0,5.36,0.99,5.36,4.49c0,3.39-2.28,4.57-5.36,4.57h-3.3V422.18z M316.01,429.45h0.93
		c1.81,0,2.82-0.93,2.82-2.74c0-1.8-1.05-2.73-2.82-2.73h-0.93V429.45z"/>
	<polygon class="st0" points="325.31,422.18 331.7,422.18 331.7,423.89 327.73,423.89 327.73,425.76 331.48,425.76 331.48,427.47 
		327.73,427.47 327.73,429.52 331.84,429.52 331.84,431.24 325.31,431.24 	"/>
	<path class="st0" d="M340.59,422.18h4.31c1.62,0,2.93,0.73,2.93,2.29c0,1.2-0.57,2.01-1.74,2.28v0.02c0.78,0.21,0.83,0.9,1.28,2
		l0.88,2.47h-2.51l-0.52-1.64c-0.49-1.56-0.81-1.94-1.7-1.94H343v3.58h-2.41V422.18z M343,425.94h0.64c0.78,0,1.77-0.03,1.77-1.05
		c0-0.84-0.85-1-1.77-1H343V425.94z"/>
	<rect x="351.12" y="422.18" class="st0" width="2.42" height="9.06"/>
	<polygon class="st0" points="356.96,422.18 363.35,422.18 363.35,423.89 359.38,423.89 359.38,425.76 363.13,425.76 363.13,427.47 
		359.38,427.47 359.38,429.52 363.49,429.52 363.49,431.24 356.96,431.24 	"/>
	<path class="st0" d="M366.67,429.01c0.62,0.34,1.49,0.6,2.49,0.6c0.76,0,1.49-0.16,1.49-0.88c0-1.69-4.28-0.63-4.28-3.92
		c0-2.18,2.13-2.78,3.94-2.78c0.86,0,1.73,0.13,2.34,0.33l-0.16,1.87c-0.63-0.28-1.33-0.42-2.02-0.42c-0.61,0-1.62,0.06-1.62,0.85
		c0,1.47,4.28,0.48,4.28,3.75c0,2.35-1.98,2.98-3.99,2.98c-0.84,0-1.89-0.13-2.7-0.39L366.67,429.01z"/>
	<path class="st0" d="M384.64,430.97c-1.53,0.39-2.68,0.42-3.51,0.42c-2.41,0-5.21-1.22-5.21-4.65c0-3.42,2.4-4.73,5.73-4.73
		c0.59,0,1.85,0.07,2.73,0.4l-0.19,1.98c-0.75-0.44-1.64-0.59-2.21-0.59c-1.96,0-3.57,0.82-3.57,2.94c0,1.78,1.26,2.85,3.02,2.85
		c0.33,0,0.63-0.05,0.85-0.16v-1.79h-1.41v-1.72h3.75V430.97z"/>
	<path class="st0" d="M392.25,422.02c2.99,0,4.55,1.78,4.55,4.69c0,2.88-1.59,4.69-4.55,4.69c-2.96,0-4.54-1.8-4.54-4.69
		C387.71,423.8,389.27,422.02,392.25,422.02 M392.25,429.6c1.47,0,2.05-1.4,2.05-2.9c0-1.57-0.58-2.9-2.05-2.9
		c-1.46,0-2.05,1.33-2.05,2.9C390.2,428.2,390.79,429.6,392.25,429.6"/>
	<path class="st0" d="M399.86,429.01c0.63,0.34,1.5,0.6,2.5,0.6c0.76,0,1.49-0.16,1.49-0.88c0-1.69-4.28-0.63-4.28-3.92
		c0-2.18,2.13-2.78,3.95-2.78c0.87,0,1.72,0.13,2.33,0.33l-0.16,1.87c-0.62-0.28-1.32-0.42-2.01-0.42c-0.61,0-1.62,0.06-1.62,0.85
		c0,1.47,4.28,0.48,4.28,3.75c0,2.35-1.97,2.98-3.98,2.98c-0.85,0-1.9-0.13-2.71-0.39L399.86,429.01z"/>
	<path class="st0" d="M415.11,422.18h3.3c3.16,0,5.36,0.99,5.36,4.49c0,3.39-2.26,4.57-5.36,4.57h-3.3V422.18z M417.53,429.45h0.93
		c1.81,0,2.82-0.93,2.82-2.74c0-1.8-1.05-2.73-2.82-2.73h-0.93V429.45z"/>
	<polygon class="st0" points="426.83,422.18 433.22,422.18 433.22,423.89 429.25,423.89 429.25,425.76 433,425.76 433,427.47 
		429.25,427.47 429.25,429.52 433.36,429.52 433.36,431.24 426.83,431.24 	"/>
	<polygon class="st0" points="436.52,422.18 438.93,422.18 438.93,429.45 442.67,429.45 442.67,431.24 436.52,431.24 	"/>
	<polygon class="st0" points="452.64,423.97 450.4,423.97 450.4,422.18 457.29,422.18 457.29,423.97 455.05,423.97 455.05,431.24 
		452.64,431.24 	"/>
	<path class="st0" d="M459.92,422.18h4.31c1.6,0,2.91,0.73,2.91,2.29c0,1.2-0.56,2.01-1.73,2.28v0.02c0.78,0.21,0.83,0.9,1.28,2
		l0.88,2.47h-2.52l-0.52-1.64c-0.49-1.56-0.81-1.94-1.7-1.94h-0.51v3.58h-2.41V422.18z M462.33,425.94h0.64
		c0.78,0,1.77-0.03,1.77-1.05c0-0.84-0.85-1-1.77-1h-0.64V425.94z"/>
	<path class="st0" d="M473.04,422.18h2.95l3.5,9.06h-2.65l-0.67-1.94h-3.4l-0.72,1.94h-2.45L473.04,422.18z M474.51,424.05h-0.03
		l-1.16,3.54h2.27L474.51,424.05z"/>
	<path class="st0" d="M482.06,422.18h4.17c1.69,0,2.94,0.74,2.94,2.3c0,1.14-0.58,1.78-1.59,2.12v0.02c1.2,0.25,1.83,0.9,1.83,2
		c0,2.17-1.91,2.62-3.53,2.62h-3.82V422.18z M484.47,425.76h0.68c0.79,0,1.6-0.19,1.6-0.96c0-0.83-0.78-0.91-1.58-0.91h-0.71V425.76
		z M484.47,429.52h0.72c0.88,0,1.8-0.13,1.8-1.05c0-0.99-0.95-1.08-1.78-1.08h-0.74V429.52z"/>
	<path class="st0" d="M495.17,422.18h2.95l3.5,9.06h-2.65l-0.68-1.94h-3.4l-0.71,1.94h-2.46L495.17,422.18z M496.64,424.05h-0.02
		l-1.17,3.54h2.27L496.64,424.05z"/>
	<path class="st0" d="M503.59,429.14c0.3,0.15,0.67,0.22,1.09,0.22c0.71,0,1.23-0.51,1.23-1.98v-5.21h2.42v5.93
		c0,1.95-0.79,3.29-3.24,3.29c-0.53,0-1.08-0.15-1.49-0.25V429.14z"/>
	<path class="st0" d="M515.91,422.02c2.99,0,4.54,1.78,4.54,4.69c0,2.88-1.59,4.69-4.54,4.69c-2.96,0-4.54-1.8-4.54-4.69
		C511.36,423.8,512.92,422.02,515.91,422.02 M515.91,429.6c1.47,0,2.05-1.4,2.05-2.9c0-1.57-0.59-2.9-2.05-2.9s-2.05,1.33-2.05,2.9
		C513.85,428.2,514.44,429.6,515.91,429.6"/>
</g>
</svg>
